<svg version="1.1" xmlns="http://www.w3.org/2000/svg" xmlns:xlink="http://www.w3.org/1999/xlink" width="865.679" height="685.648">
	<g id="selection" transform="matrix(1,0,0,1,-75.1213,-46.32)">
		<g id="dp_group001">
			<g id="dp_group002">
				<path id="dp_path003" fill="#5b5b5b" d="M 78.4813,131.205 L 78.4867,130.891 L 78.4973,130.583 L 78.5107,130.271 L 78.528,129.964 L 78.5507,129.653 L 78.576,129.343 L 78.604,129.039 L 78.6373,128.735 L 78.6733,128.431 L 78.7147,128.128 L 78.7587,127.824 L 78.8053,127.527 L 78.8587,127.228 L 78.9133,126.928 L 78.972,126.632 L 79.0347,126.339 L 79.1,126.045 L 79.1707,125.751 L 79.2427,125.457 L 79.3187,125.168 L 79.3987,124.883 L 79.4813,124.597 L 79.5693,124.311 L 79.6587,124.027 L 79.752,123.745 L 79.848,123.467 L 79.9493,123.187 L 80.0547,122.904 L 80.16,122.632 L 80.2693,122.36 L 80.384,122.083 L 80.5,121.813 L 80.6187,121.545 L 80.7427,121.277 L 80.868,121.012 L 80.9987,120.748 L 81.132,120.484 L 81.2653,120.223 L 81.4027,119.968 L 81.544,119.712 L 81.6907,119.456 L 81.8387,119.2 L 81.988,118.951 L 82.14,118.704 L 82.2973,118.456 L 82.456,118.211 L 82.6187,117.968 L 82.7813,117.729 L 82.9507,117.489 L 83.1213,117.251 L 83.2933,117.019 L 83.4707,116.784 L 83.648,116.555 L 83.8293,116.328 L 84.0133,116.101 L 84.2,115.877 L 84.3907,115.657 L 84.5827,115.437 L 84.7773,115.22 L 84.972,115.008 L 85.172,114.797 L 85.3747,114.587 L 85.5787,114.379 L 85.7867,114.175 L 85.9973,113.972 L 86.208,113.772 L 86.42,113.577 L 86.6373,113.383 L 86.8573,113.191 L 87.0773,113 L 87.3013,112.813 L 87.528,112.629 L 87.7547,112.448 L 87.984,112.271 L 88.2187,112.093 L 88.4507,111.921 L 88.6893,111.751 L 88.9293,111.581 L 89.168,111.419 L 89.4107,111.256 L 89.656,111.097 L 89.904,110.94 L 90.1507,110.788 L 90.4,110.639 L 90.656,110.491 L 90.912,110.344 L 91.168,110.203 L 91.4227,110.065 L 91.684,109.932 L 91.948,109.799 L 92.212,109.668 L 92.4773,109.543 L 92.7453,109.419 L 93.0133,109.3 L 93.2827,109.184 L 93.56,109.069 L 93.832,108.96 L 94.104,108.855 L 94.3867,108.749 L 94.6667,108.648 L 94.9453,108.552 L 95.2267,108.459 L 95.5107,108.369 L 95.7973,108.281 L 96.0827,108.199 L 96.368,108.119 L 96.6573,108.043 L 96.9507,107.971 L 97.2453,107.9 L 97.5387,107.835 L 97.832,107.772 L 98.128,107.713 L 98.428,107.659 L 98.7267,107.605 L 99.024,107.559 L 99.328,107.515 L 99.6307,107.473 L 99.9347,107.437 L 100.239,107.404 L 100.543,107.376 L 100.853,107.351 L 101.164,107.328 L 101.471,107.311 L 101.783,107.297 L 102.091,107.287 L 102.405,107.281 L 102.727,107.28 L 799.672,107.28 L 799.993,107.281 L 800.308,107.287 L 800.616,107.297 L 800.928,107.311 L 801.235,107.328 L 801.545,107.351 L 801.856,107.376 L 802.16,107.404 L 802.464,107.437 L 802.768,107.473 L 803.071,107.515 L 803.375,107.559 L 803.672,107.605 L 803.971,107.659 L 804.271,107.713 L 804.567,107.772 L 804.86,107.835 L 805.153,107.9 L 805.448,107.971 L 805.741,108.043 L 806.031,108.119 L 806.316,108.199 L 806.601,108.281 L 806.888,108.369 L 807.172,108.459 L 807.453,108.552 L 807.732,108.648 L 808.012,108.749 L 808.295,108.855 L 808.567,108.96 L 808.839,109.069 L 809.116,109.184 L 809.385,109.3 L 809.653,109.419 L 809.921,109.543 L 810.187,109.668 L 810.451,109.799 L 810.715,109.932 L 810.976,110.065 L 811.231,110.203 L 811.487,110.344 L 811.743,110.491 L 811.999,110.639 L 812.248,110.788 L 812.495,110.94 L 812.743,111.097 L 812.988,111.256 L 813.231,111.419 L 813.469,111.581 L 813.709,111.751 L 813.948,111.921 L 814.18,112.093 L 814.415,112.271 L 814.644,112.448 L 814.871,112.629 L 815.097,112.813 L 815.321,113 L 815.541,113.191 L 815.761,113.383 L 815.979,113.577 L 816.191,113.772 L 816.401,113.972 L 816.612,114.175 L 816.82,114.379 L 817.024,114.587 L 817.227,114.797 L 817.427,115.008 L 817.621,115.22 L 817.816,115.437 L 818.008,115.657 L 818.199,115.877 L 818.385,116.101 L 818.569,116.328 L 818.751,116.555 L 818.928,116.784 L 819.105,117.019 L 819.277,117.251 L 819.448,117.489 L 819.617,117.729 L 819.78,117.968 L 819.943,118.211 L 820.101,118.456 L 820.259,118.704 L 820.411,118.951 L 820.56,119.2 L 820.708,119.456 L 820.855,119.712 L 820.996,119.968 L 821.133,120.223 L 821.267,120.484 L 821.4,120.748 L 821.531,121.012 L 821.656,121.277 L 821.78,121.545 L 821.899,121.813 L 822.015,122.083 L 822.129,122.36 L 822.239,122.632 L 822.344,122.904 L 822.449,123.187 L 822.551,123.467 L 822.647,123.745 L 822.74,124.027 L 822.829,124.311 L 822.917,124.597 L 823,124.883 L 823.08,125.168 L 823.156,125.457 L 823.228,125.751 L 823.299,126.045 L 823.364,126.339 L 823.427,126.632 L 823.485,126.928 L 823.54,127.228 L 823.593,127.527 L 823.64,127.824 L 823.684,128.128 L 823.725,128.431 L 823.761,128.735 L 823.795,129.039 L 823.823,129.343 L 823.848,129.653 L 823.871,129.964 L 823.888,130.271 L 823.901,130.583 L 823.912,130.891 L 823.917,131.205 L 823.919,131.527 L 823.919,598.071 L 823.917,598.392 L 823.912,598.707 L 823.901,599.015 L 823.888,599.327 L 823.871,599.633 L 823.848,599.944 L 823.823,600.255 L 823.795,600.559 L 823.761,600.863 L 823.725,601.167 L 823.684,601.469 L 823.64,601.773 L 823.593,602.071 L 823.54,602.369 L 823.485,602.669 L 823.427,602.965 L 823.364,603.259 L 823.299,603.552 L 823.228,603.847 L 823.156,604.14 L 823.08,604.429 L 823,604.715 L 822.917,605 L 822.829,605.287 L 822.74,605.571 L 822.647,605.852 L 822.551,606.131 L 822.449,606.411 L 822.344,606.693 L 822.239,606.965 L 822.129,607.237 L 822.015,607.515 L 821.899,607.784 L 821.78,608.052 L 821.656,608.32 L 821.531,608.585 L 821.4,608.849 L 821.267,609.113 L 821.133,609.375 L 820.996,609.629 L 820.855,609.885 L 820.708,610.141 L 820.56,610.397 L 820.411,610.647 L 820.259,610.893 L 820.101,611.141 L 819.943,611.387 L 819.78,611.629 L 819.617,611.868 L 819.448,612.108 L 819.277,612.347 L 819.105,612.579 L 818.928,612.813 L 818.751,613.043 L 818.569,613.269 L 818.385,613.496 L 818.199,613.72 L 818.008,613.94 L 817.816,614.16 L 817.621,614.377 L 817.427,614.589 L 817.227,614.8 L 817.024,615.011 L 816.82,615.219 L 816.612,615.423 L 816.401,615.625 L 816.191,615.825 L 815.979,616.02 L 815.761,616.215 L 815.541,616.407 L 815.321,616.597 L 815.097,616.784 L 814.871,616.968 L 814.644,617.149 L 814.415,617.327 L 814.18,617.504 L 813.948,617.676 L 813.709,617.847 L 813.469,618.016 L 813.231,618.179 L 812.988,618.341 L 812.743,618.5 L 812.495,618.657 L 812.248,618.809 L 811.999,618.959 L 811.743,619.107 L 811.487,619.253 L 811.231,619.395 L 810.976,619.532 L 810.715,619.665 L 810.451,619.799 L 810.187,619.929 L 809.921,620.055 L 809.653,620.179 L 809.385,620.297 L 809.116,620.413 L 808.839,620.528 L 808.567,620.637 L 808.295,620.743 L 808.012,620.848 L 807.732,620.949 L 807.453,621.045 L 807.172,621.139 L 806.888,621.228 L 806.601,621.316 L 806.316,621.399 L 806.031,621.479 L 805.741,621.555 L 805.448,621.627 L 805.153,621.697 L 804.86,621.763 L 804.567,621.825 L 804.271,621.884 L 803.971,621.939 L 803.672,621.992 L 803.375,622.039 L 803.071,622.083 L 802.768,622.124 L 802.464,622.16 L 802.16,622.193 L 801.856,622.221 L 801.545,622.247 L 801.235,622.269 L 800.928,622.287 L 800.616,622.3 L 800.308,622.311 L 799.993,622.316 L 799.672,622.317 L 102.727,622.317 L 102.405,622.316 L 102.091,622.311 L 101.783,622.3 L 101.471,622.287 L 101.164,622.269 L 100.853,622.247 L 100.543,622.221 L 100.239,622.193 L 99.9347,622.16 L 99.6307,622.124 L 99.328,622.083 L 99.024,622.039 L 98.7267,621.992 L 98.428,621.939 L 98.128,621.884 L 97.832,621.825 L 97.5387,621.763 L 97.2453,621.697 L 96.9507,621.627 L 96.6573,621.555 L 96.368,621.479 L 96.0827,621.399 L 95.7973,621.316 L 95.5107,621.228 L 95.2267,621.139 L 94.9453,621.045 L 94.6667,620.949 L 94.3867,620.848 L 94.104,620.743 L 93.832,620.637 L 93.56,620.528 L 93.2827,620.413 L 93.0133,620.297 L 92.7453,620.179 L 92.4773,620.055 L 92.212,619.929 L 91.948,619.799 L 91.684,619.665 L 91.4227,619.532 L 91.168,619.395 L 90.912,619.253 L 90.656,619.107 L 90.4,618.959 L 90.1507,618.809 L 89.904,618.657 L 89.656,618.5 L 89.4107,618.341 L 89.168,618.179 L 88.9293,618.016 L 88.6893,617.847 L 88.4507,617.676 L 88.2187,617.504 L 87.984,617.327 L 87.7547,617.149 L 87.528,616.968 L 87.3013,616.784 L 87.0773,616.597 L 86.8573,616.407 L 86.6373,616.215 L 86.42,616.02 L 86.208,615.825 L 85.9973,615.625 L 85.7867,615.423 L 85.5787,615.219 L 85.3747,615.011 L 85.172,614.8 L 84.972,614.589 L 84.7773,614.377 L 84.5827,614.16 L 84.3907,613.94 L 84.2,613.72 L 84.0133,613.496 L 83.8293,613.269 L 83.648,613.043 L 83.4707,612.813 L 83.2933,612.579 L 83.1213,612.347 L 82.9507,612.108 L 82.7813,611.868 L 82.6187,611.629 L 82.456,611.387 L 82.2973,611.141 L 82.14,610.893 L 81.988,610.647 L 81.8387,610.397 L 81.6907,610.141 L 81.544,609.885 L 81.4027,609.629 L 81.2653,609.375 L 81.132,609.113 L 80.9987,608.849 L 80.868,608.585 L 80.7427,608.32 L 80.6187,608.052 L 80.5,607.784 L 80.384,607.515 L 80.2693,607.237 L 80.16,606.965 L 80.0547,606.693 L 79.9493,606.411 L 79.848,606.131 L 79.752,605.852 L 79.6587,605.571 L 79.5693,605.287 L 79.4813,605 L 79.3987,604.715 L 79.3187,604.429 L 79.2427,604.14 L 79.1707,603.847 L 79.1,603.552 L 79.0347,603.259 L 78.972,602.965 L 78.9133,602.669 L 78.8587,602.369 L 78.8053,602.071 L 78.7587,601.773 L 78.7147,601.469 L 78.6733,601.167 L 78.6373,600.863 L 78.604,600.559 L 78.576,600.255 L 78.5507,599.944 L 78.528,599.633 L 78.5107,599.327 L 78.4973,599.015 L 78.4867,598.707 L 78.4813,598.392 L 78.48,598.071 L 78.48,131.527 L 78.4813,131.205 L 75.124,131.165 L 75.12,131.513 L 75.12,598.084 L 75.124,598.432 L 75.1293,598.787 L 75.14,599.143 L 75.156,599.495 L 75.176,599.849 L 75.2013,600.2 L 75.2293,600.545 L 75.2627,600.897 L 75.3013,601.244 L 75.3427,601.591 L 75.3893,601.936 L 75.4387,602.275 L 75.4933,602.62 L 75.552,602.961 L 75.6147,603.299 L 75.6813,603.637 L 75.752,603.973 L 75.828,604.309 L 75.9067,604.641 L 75.9893,604.969 L 76.076,605.301 L 76.1667,605.632 L 76.2627,605.96 L 76.3613,606.284 L 76.464,606.605 L 76.5707,606.929 L 76.6827,607.251 L 76.7973,607.568 L 76.9133,607.88 L 77.0347,608.197 L 77.1627,608.512 L 77.2907,608.819 L 77.4227,609.128 L 77.56,609.436 L 77.7,609.741 L 77.844,610.044 L 77.9907,610.345 L 78.14,610.641 L 78.2947,610.937 L 78.4533,611.235 L 78.616,611.528 L 78.7787,611.816 L 78.9453,612.101 L 79.116,612.388 L 79.292,612.675 L 79.4707,612.955 L 79.6507,613.232 L 79.8347,613.509 L 80.024,613.785 L 80.2147,614.055 L 80.4067,614.323 L 80.6053,614.592 L 80.804,614.853 L 81.008,615.117 L 81.216,615.379 L 81.424,615.632 L 81.6373,615.888 L 81.852,616.14 L 82.068,616.387 L 82.2893,616.633 L 82.516,616.88 L 82.7427,617.12 L 82.972,617.357 L 83.2053,617.592 L 83.44,617.825 L 83.6773,618.055 L 83.9173,618.281 L 84.164,618.508 L 84.4107,618.729 L 84.6573,618.945 L 84.9093,619.16 L 85.1653,619.373 L 85.4187,619.581 L 85.68,619.789 L 85.944,619.993 L 86.2053,620.192 L 86.4747,620.391 L 86.7427,620.583 L 87.012,620.773 L 87.288,620.963 L 87.5653,621.147 L 87.8427,621.327 L 88.1227,621.505 L 88.4093,621.681 L 88.696,621.852 L 88.9813,622.019 L 89.2693,622.181 L 89.5627,622.344 L 89.86,622.503 L 90.156,622.657 L 90.452,622.807 L 90.7533,622.953 L 91.056,623.097 L 91.3613,623.237 L 91.6693,623.375 L 91.9787,623.507 L 92.2853,623.635 L 92.6,623.763 L 92.9173,623.884 L 93.2293,624 L 93.5467,624.115 L 93.868,624.227 L 94.192,624.333 L 94.5133,624.436 L 94.8373,624.535 L 95.1653,624.631 L 95.496,624.721 L 95.828,624.808 L 96.156,624.891 L 96.488,624.969 L 96.824,625.045 L 97.16,625.116 L 97.4987,625.183 L 97.836,625.245 L 98.1773,625.304 L 98.5227,625.359 L 98.8613,625.408 L 99.2067,625.455 L 99.5533,625.496 L 99.9,625.535 L 100.252,625.568 L 100.597,625.596 L 100.948,625.621 L 101.303,625.641 L 101.655,625.657 L 102.011,625.668 L 102.365,625.673 L 102.713,625.677 L 799.685,625.677 L 800.033,625.673 L 800.388,625.668 L 800.744,625.657 L 801.096,625.641 L 801.451,625.621 L 801.801,625.596 L 802.147,625.568 L 802.499,625.535 L 802.845,625.496 L 803.192,625.455 L 803.537,625.408 L 803.876,625.359 L 804.221,625.304 L 804.563,625.245 L 804.9,625.183 L 805.239,625.116 L 805.575,625.045 L 805.911,624.969 L 806.243,624.891 L 806.571,624.808 L 806.903,624.721 L 807.233,624.631 L 807.561,624.535 L 807.885,624.436 L 808.207,624.333 L 808.531,624.227 L 808.852,624.115 L 809.169,624 L 809.481,623.884 L 809.799,623.763 L 810.113,623.635 L 810.42,623.507 L 810.729,623.375 L 811.037,623.237 L 811.343,623.097 L 811.645,622.953 L 811.947,622.807 L 812.243,622.657 L 812.539,622.503 L 812.836,622.344 L 813.129,622.181 L 813.417,622.019 L 813.703,621.852 L 813.989,621.681 L 814.276,621.505 L 814.556,621.327 L 814.833,621.147 L 815.111,620.963 L 815.387,620.773 L 815.656,620.583 L 815.924,620.391 L 816.193,620.192 L 816.455,619.993 L 816.719,619.789 L 816.98,619.581 L 817.233,619.373 L 817.489,619.16 L 817.741,618.945 L 817.988,618.729 L 818.235,618.508 L 818.481,618.281 L 818.721,618.055 L 818.959,617.825 L 819.193,617.592 L 819.427,617.357 L 819.656,617.12 L 819.883,616.88 L 820.109,616.633 L 820.331,616.387 L 820.547,616.14 L 820.761,615.888 L 820.975,615.632 L 821.183,615.379 L 821.391,615.117 L 821.595,614.853 L 821.793,614.592 L 821.992,614.323 L 822.184,614.055 L 822.375,613.785 L 822.564,613.509 L 822.748,613.232 L 822.928,612.955 L 823.107,612.675 L 823.283,612.388 L 823.453,612.101 L 823.62,611.816 L 823.783,611.528 L 823.945,611.235 L 824.104,610.937 L 824.259,610.641 L 824.408,610.345 L 824.555,610.044 L 824.699,609.741 L 824.839,609.436 L 824.976,609.128 L 825.108,608.819 L 825.236,608.512 L 825.364,608.197 L 825.485,607.88 L 825.601,607.568 L 825.716,607.251 L 825.828,606.929 L 825.935,606.605 L 826.037,606.284 L 826.136,605.96 L 826.232,605.632 L 826.323,605.301 L 826.409,604.969 L 826.492,604.641 L 826.571,604.309 L 826.647,603.973 L 826.717,603.637 L 826.784,603.299 L 826.847,602.961 L 826.905,602.62 L 826.96,602.275 L 827.009,601.936 L 827.056,601.591 L 827.097,601.244 L 827.136,600.897 L 827.169,600.545 L 827.197,600.2 L 827.223,599.849 L 827.243,599.495 L 827.259,599.143 L 827.269,598.787 L 827.275,598.432 L 827.279,598.084 L 827.279,131.513 L 827.275,131.165 L 827.269,130.811 L 827.259,130.455 L 827.243,130.103 L 827.223,129.748 L 827.197,129.397 L 827.169,129.052 L 827.136,128.7 L 827.097,128.353 L 827.056,128.007 L 827.009,127.661 L 826.96,127.323 L 826.905,126.977 L 826.847,126.636 L 826.784,126.299 L 826.717,125.96 L 826.647,125.624 L 826.571,125.288 L 826.492,124.956 L 826.409,124.628 L 826.323,124.296 L 826.232,123.965 L 826.136,123.637 L 826.037,123.313 L 825.935,122.992 L 825.828,122.668 L 825.716,122.347 L 825.601,122.029 L 825.485,121.717 L 825.364,121.4 L 825.236,121.085 L 825.108,120.779 L 824.976,120.469 L 824.839,120.161 L 824.699,119.856 L 824.555,119.553 L 824.408,119.252 L 824.259,118.956 L 824.104,118.66 L 823.945,118.363 L 823.783,118.069 L 823.62,117.781 L 823.453,117.496 L 823.283,117.209 L 823.107,116.923 L 822.928,116.643 L 822.748,116.365 L 822.564,116.088 L 822.375,115.812 L 822.184,115.543 L 821.992,115.275 L 821.793,115.005 L 821.595,114.744 L 821.391,114.48 L 821.183,114.219 L 820.975,113.965 L 820.761,113.709 L 820.547,113.457 L 820.331,113.211 L 820.109,112.964 L 819.883,112.717 L 819.656,112.477 L 819.427,112.24 L 819.193,112.005 L 818.959,111.772 L 818.721,111.543 L 818.481,111.316 L 818.235,111.089 L 817.988,110.868 L 817.741,110.652 L 817.489,110.437 L 817.233,110.224 L 816.98,110.016 L 816.719,109.808 L 816.455,109.604 L 816.193,109.405 L 815.924,109.207 L 815.656,109.015 L 815.387,108.824 L 815.111,108.635 L 814.833,108.451 L 814.556,108.271 L 814.276,108.092 L 813.989,107.916 L 813.703,107.745 L 813.417,107.579 L 813.129,107.416 L 812.836,107.253 L 812.539,107.095 L 812.243,106.94 L 811.947,106.791 L 811.645,106.644 L 811.343,106.5 L 811.037,106.36 L 810.729,106.223 L 810.42,106.091 L 810.113,105.963 L 809.799,105.835 L 809.481,105.713 L 809.169,105.597 L 808.852,105.483 L 808.531,105.371 L 808.207,105.264 L 807.885,105.161 L 807.561,105.063 L 807.233,104.967 L 806.903,104.876 L 806.571,104.789 L 806.243,104.707 L 805.911,104.628 L 805.575,104.552 L 805.239,104.481 L 804.9,104.415 L 804.563,104.352 L 804.221,104.293 L 803.876,104.239 L 803.537,104.189 L 803.192,104.143 L 802.845,104.101 L 802.499,104.063 L 802.147,104.029 L 801.801,104.001 L 801.451,103.976 L 801.096,103.956 L 800.744,103.94 L 800.388,103.929 L 800.033,103.924 L 799.685,103.92 L 102.713,103.92 L 102.365,103.924 L 102.011,103.929 L 101.655,103.94 L 101.303,103.956 L 100.948,103.976 L 100.597,104.001 L 100.252,104.029 L 99.9,104.063 L 99.5533,104.101 L 99.2067,104.143 L 98.8613,104.189 L 98.5227,104.239 L 98.1773,104.293 L 97.836,104.352 L 97.4987,104.415 L 97.16,104.481 L 96.824,104.552 L 96.488,104.628 L 96.156,104.707 L 95.828,104.789 L 95.496,104.876 L 95.1653,104.967 L 94.8373,105.063 L 94.5133,105.161 L 94.192,105.264 L 93.868,105.371 L 93.5467,105.483 L 93.2293,105.597 L 92.9173,105.713 L 92.6,105.835 L 92.2853,105.963 L 91.9787,106.091 L 91.6693,106.223 L 91.3613,106.36 L 91.056,106.5 L 90.7533,106.644 L 90.452,106.791 L 90.156,106.94 L 89.86,107.095 L 89.5627,107.253 L 89.2693,107.416 L 88.9813,107.579 L 88.696,107.745 L 88.4093,107.916 L 88.1227,108.092 L 87.8427,108.271 L 87.5653,108.451 L 87.288,108.635 L 87.012,108.824 L 86.7427,109.015 L 86.4747,109.207 L 86.2053,109.405 L 85.944,109.604 L 85.68,109.808 L 85.4187,110.016 L 85.1653,110.224 L 84.9093,110.437 L 84.6573,110.652 L 84.4107,110.868 L 84.164,111.089 L 83.9173,111.316 L 83.6773,111.543 L 83.44,111.772 L 83.2053,112.005 L 82.972,112.24 L 82.7427,112.477 L 82.516,112.717 L 82.2893,112.964 L 82.068,113.211 L 81.852,113.457 L 81.6373,113.709 L 81.424,113.965 L 81.216,114.219 L 81.008,114.48 L 80.804,114.744 L 80.6053,115.005 L 80.4067,115.275 L 80.2147,115.543 L 80.024,115.812 L 79.8347,116.088 L 79.6507,116.365 L 79.4707,116.643 L 79.292,116.923 L 79.116,117.209 L 78.9453,117.496 L 78.7787,117.781 L 78.616,118.069 L 78.4533,118.363 L 78.2947,118.66 L 78.14,118.956 L 77.9907,119.252 L 77.844,119.553 L 77.7,119.856 L 77.56,120.161 L 77.4227,120.469 L 77.2907,120.779 L 77.1627,121.085 L 77.0347,121.4 L 76.9133,121.717 L 76.7973,122.029 L 76.6827,122.347 L 76.5707,122.668 L 76.464,122.992 L 76.3613,123.313 L 76.2627,123.637 L 76.1667,123.965 L 76.076,124.296 L 75.9893,124.628 L 75.9067,124.956 L 75.828,125.288 L 75.752,125.624 L 75.6813,125.96 L 75.6147,126.299 L 75.552,126.636 L 75.4933,126.977 L 75.4387,127.323 L 75.3893,127.661 L 75.3427,128.007 L 75.3013,128.353 L 75.2627,128.7 L 75.2293,129.052 L 75.2013,129.397 L 75.176,129.748 L 75.156,130.103 L 75.14,130.455 L 75.1293,130.811 L 75.124,131.165 Z "/>
			</g>
		</g>
		<g id="dp_group004">
			<path id="dp_path005" fill="white" fill-rule="evenodd" stroke="black" stroke-width="1.33333" d="M 134.401,604.8 L 201.6,604.8 L 201.6,633.6 L 134.401,633.6 Z "/>
			<path id="dp_path006" fill="white" fill-rule="evenodd" stroke="black" stroke-width="1.33333" d="M 148.8,614.4 C 151.451,614.4 153.6,616.549 153.6,619.2 C 153.6,621.851 151.451,624 148.8,624 C 146.149,624 144,621.851 144,619.2 C 144,616.549 146.149,614.4 148.8,614.4 Z "/>
			<path id="dp_path007" fill="white" fill-rule="evenodd" stroke="black" stroke-width="1.33333" d="M 168,614.4 C 170.651,614.4 172.8,616.549 172.8,619.2 C 172.8,621.851 170.651,624 168,624 C 165.349,624 163.2,621.851 163.2,619.2 C 163.2,616.549 165.349,614.4 168,614.4 Z "/>
			<path id="dp_path008" fill="white" fill-rule="evenodd" stroke="black" stroke-width="1.33333" d="M 187.2,614.4 C 189.851,614.4 192,616.549 192,619.2 C 192,621.851 189.851,624 187.2,624 C 184.549,624 182.4,621.851 182.4,619.2 C 182.4,616.549 184.549,614.4 187.2,614.4 Z "/>
		</g>
		<g id="dp_group009">
			<path id="dp_path010" fill="white" fill-rule="evenodd" stroke="black" stroke-width="1.344" d="M 153.6,96.0013 L 201.597,96.0013 L 201.597,124.801 L 153.6,124.801 Z "/>
			<path id="dp_path011" fill="white" fill-rule="evenodd" stroke="black" stroke-width="1.33333" d="M 167.999,105.601 C 170.649,105.601 172.799,107.751 172.799,110.401 C 172.799,113.052 170.649,115.201 167.999,115.201 C 165.348,115.201 163.199,113.052 163.199,110.401 C 163.199,107.751 165.348,105.601 167.999,105.601 Z "/>
			<path id="dp_path012" fill="white" fill-rule="evenodd" stroke="black" stroke-width="1.33333" d="M 187.199,105.601 C 189.849,105.601 191.999,107.751 191.999,110.401 C 191.999,113.052 189.849,115.201 187.199,115.201 C 184.548,115.201 182.399,113.052 182.399,110.401 C 182.399,107.751 184.548,105.601 187.199,105.601 Z "/>
		</g>
		<g id="dp_group013">
			<path id="dp_path014" fill="white" fill-rule="evenodd" stroke="black" stroke-width="1.33333" d="M 518.403,604.8 L 585.601,604.8 L 585.601,633.6 L 518.403,633.6 Z "/>
			<path id="dp_path015" fill="white" fill-rule="evenodd" stroke="black" stroke-width="1.33333" d="M 532.801,614.4 C 535.452,614.4 537.601,616.549 537.601,619.2 C 537.601,621.851 535.452,624 532.801,624 C 530.151,624 528.001,621.851 528.001,619.2 C 528.001,616.549 530.151,614.4 532.801,614.4 Z "/>
			<path id="dp_path016" fill="white" fill-rule="evenodd" stroke="black" stroke-width="1.33333" d="M 552.001,614.4 C 554.652,614.4 556.801,616.549 556.801,619.2 C 556.801,621.851 554.652,624 552.001,624 C 549.351,624 547.201,621.851 547.201,619.2 C 547.201,616.549 549.351,614.4 552.001,614.4 Z "/>
			<path id="dp_path017" fill="white" fill-rule="evenodd" stroke="black" stroke-width="1.33333" d="M 571.201,614.4 C 573.852,614.4 576.001,616.549 576.001,619.2 C 576.001,621.851 573.852,624 571.201,624 C 568.551,624 566.401,621.851 566.401,619.2 C 566.401,616.549 568.551,614.4 571.201,614.4 Z "/>
		</g>
		<g id="dp_group018">
			<path id="dp_path019" fill="white" fill-rule="evenodd" stroke="black" stroke-width="1.33333" d="M 624.001,604.8 L 691.2,604.8 L 691.2,633.6 L 624.001,633.6 Z "/>
			<path id="dp_path020" fill="white" fill-rule="evenodd" stroke="black" stroke-width="1.33333" d="M 638.4,614.4 C 641.051,614.4 643.2,616.549 643.2,619.2 C 643.2,621.851 641.051,624 638.4,624 C 635.749,624 633.6,621.851 633.6,619.2 C 633.6,616.549 635.749,614.4 638.4,614.4 Z "/>
			<path id="dp_path021" fill="white" fill-rule="evenodd" stroke="black" stroke-width="1.33333" d="M 657.6,614.4 C 660.251,614.4 662.4,616.549 662.4,619.2 C 662.4,621.851 660.251,624 657.6,624 C 654.949,624 652.8,621.851 652.8,619.2 C 652.8,616.549 654.949,614.4 657.6,614.4 Z "/>
			<path id="dp_path022" fill="white" fill-rule="evenodd" stroke="black" stroke-width="1.33333" d="M 676.8,614.4 C 679.451,614.4 681.6,616.549 681.6,619.2 C 681.6,621.851 679.451,624 676.8,624 C 674.149,624 672,621.851 672,619.2 C 672,616.549 674.149,614.4 676.8,614.4 Z "/>
		</g>
		<g id="dp_group023">
			<path id="dp_path024" fill="white" fill-rule="evenodd" stroke="black" stroke-width="1.33333" d="M 729.6,604.8 L 796.799,604.8 L 796.799,633.6 L 729.6,633.6 Z "/>
			<path id="dp_path025" fill="white" fill-rule="evenodd" stroke="black" stroke-width="1.33333" d="M 743.999,614.4 C 746.649,614.4 748.799,616.549 748.799,619.2 C 748.799,621.851 746.649,624 743.999,624 C 741.348,624 739.199,621.851 739.199,619.2 C 739.199,616.549 741.348,614.4 743.999,614.4 Z "/>
			<path id="dp_path026" fill="white" fill-rule="evenodd" stroke="black" stroke-width="1.33333" d="M 763.199,614.4 C 765.849,614.4 767.999,616.549 767.999,619.2 C 767.999,621.851 765.849,624 763.199,624 C 760.548,624 758.399,621.851 758.399,619.2 C 758.399,616.549 760.548,614.4 763.199,614.4 Z "/>
			<path id="dp_path027" fill="white" fill-rule="evenodd" stroke="black" stroke-width="1.33333" d="M 782.399,614.4 C 785.049,614.4 787.199,616.549 787.199,619.2 C 787.199,621.851 785.049,624 782.399,624 C 779.748,624 777.599,621.851 777.599,619.2 C 777.599,616.549 779.748,614.4 782.399,614.4 Z "/>
		</g>
		<g id="dp_group028">
			<g id="dp_group029">
				<path id="dp_path030" fill="black" fill-rule="evenodd" d="M 155.281,588 L 151.921,588 L 145.201,588 L 153.601,604.8 L 162.001,588 Z "/>
				<path id="dp_path031" fill="black" d="M 155.28,588 L 155.28,547.2 L 151.92,547.2 L 151.92,588 Z "/>
			</g>
		</g>
		<g id="dp_group032">
			<g id="dp_group033">
				<path id="dp_path034" fill="black" fill-rule="evenodd" d="M 183.409,594.719 L 181.393,594.719 L 177.361,594.719 L 182.401,604.799 L 187.441,594.719 Z "/>
				<path id="dp_path035" fill="black" d="M 183.408,594.719 L 183.408,528 L 181.392,528 L 181.392,594.719 Z "/>
			</g>
		</g>
		<g id="dp_group036">
			<g id="dp_group037">
				<path id="dp_path038" fill="black" fill-rule="evenodd" d="M 553.008,594.72 L 550.992,594.72 L 546.96,594.72 L 552,604.8 L 557.04,594.72 Z "/>
				<path id="dp_path039" fill="black" d="M 553.007,594.72 L 553.007,566.4 L 550.991,566.4 L 550.991,594.72 Z "/>
			</g>
		</g>
		<g id="dp_group040">
			<g id="dp_group041">
				<path id="dp_path042" fill="black" fill-rule="evenodd" d="M 658.608,594.72 L 656.592,594.72 L 652.56,594.72 L 657.6,604.8 L 662.64,594.72 Z "/>
				<path id="dp_path043" fill="black" d="M 658.607,594.72 L 658.607,566.4 L 656.591,566.4 L 656.591,594.72 Z "/>
			</g>
		</g>
		<g id="dp_group044">
			<g id="dp_group045">
				<path id="dp_path046" fill="black" fill-rule="evenodd" d="M 764.209,594.72 L 762.193,594.72 L 758.161,594.72 L 763.201,604.8 L 768.241,594.72 Z "/>
				<path id="dp_path047" fill="black" d="M 764.208,594.72 L 764.208,566.4 L 762.192,566.4 L 762.192,594.72 Z "/>
			</g>
		</g>
		<g id="dp_group048">
			<path id="dp_path049" fill="white" fill-rule="evenodd" stroke="black" stroke-width="1.33333" d="M 220.801,604.8 L 288,604.8 L 288,633.6 L 220.801,633.6 Z "/>
			<path id="dp_path050" fill="white" fill-rule="evenodd" stroke="black" stroke-width="1.33333" d="M 235.2,614.4 C 237.851,614.4 240,616.549 240,619.2 C 240,621.851 237.851,624 235.2,624 C 232.549,624 230.4,621.851 230.4,619.2 C 230.4,616.549 232.549,614.4 235.2,614.4 Z "/>
			<path id="dp_path051" fill="white" fill-rule="evenodd" stroke="black" stroke-width="1.33333" d="M 254.4,614.4 C 257.051,614.4 259.2,616.549 259.2,619.2 C 259.2,621.851 257.051,624 254.4,624 C 251.749,624 249.6,621.851 249.6,619.2 C 249.6,616.549 251.749,614.4 254.4,614.4 Z "/>
			<path id="dp_path052" fill="white" fill-rule="evenodd" stroke="black" stroke-width="1.33333" d="M 273.6,614.4 C 276.251,614.4 278.4,616.549 278.4,619.2 C 278.4,621.851 276.251,624 273.6,624 C 270.949,624 268.8,621.851 268.8,619.2 C 268.8,616.549 270.949,614.4 273.6,614.4 Z "/>
		</g>
		<g id="dp_group053">
			<g id="dp_group054">
				<path id="dp_path055" fill="black" fill-rule="evenodd" d="M 241.681,588 L 238.321,588 L 231.601,588 L 240.001,604.8 L 248.401,588 Z "/>
				<path id="dp_path056" fill="black" d="M 241.68,588 L 241.68,547.2 L 238.32,547.2 L 238.32,588 Z "/>
			</g>
		</g>
		<g id="dp_group057">
			<g id="dp_group058">
				<path id="dp_path059" fill="black" fill-rule="evenodd" d="M 269.809,594.717 L 267.793,594.717 L 263.761,594.717 L 268.801,604.797 L 273.841,594.717 Z "/>
				<path id="dp_path060" fill="black" d="M 269.808,594.717 L 269.808,528 L 267.792,528 L 267.792,594.717 Z "/>
			</g>
		</g>
		<g id="dp_group061">
			<path id="dp_path062" fill="white" fill-rule="evenodd" stroke="black" stroke-width="1.33333" d="M 307.201,604.8 L 374.4,604.8 L 374.4,633.6 L 307.201,633.6 Z "/>
			<path id="dp_path063" fill="white" fill-rule="evenodd" stroke="black" stroke-width="1.33333" d="M 321.6,614.4 C 324.251,614.4 326.4,616.549 326.4,619.2 C 326.4,621.851 324.251,624 321.6,624 C 318.949,624 316.8,621.851 316.8,619.2 C 316.8,616.549 318.949,614.4 321.6,614.4 Z "/>
			<path id="dp_path064" fill="white" fill-rule="evenodd" stroke="black" stroke-width="1.33333" d="M 340.8,614.4 C 343.451,614.4 345.6,616.549 345.6,619.2 C 345.6,621.851 343.451,624 340.8,624 C 338.149,624 336,621.851 336,619.2 C 336,616.549 338.149,614.4 340.8,614.4 Z "/>
			<path id="dp_path065" fill="white" fill-rule="evenodd" stroke="black" stroke-width="1.33333" d="M 360,614.4 C 362.651,614.4 364.8,616.549 364.8,619.2 C 364.8,621.851 362.651,624 360,624 C 357.349,624 355.2,621.851 355.2,619.2 C 355.2,616.549 357.349,614.4 360,614.4 Z "/>
		</g>
		<g id="dp_group066">
			<g id="dp_group067">
				<path id="dp_path068" fill="black" fill-rule="evenodd" d="M 328.081,587.999 L 324.721,587.999 L 318.001,587.999 L 326.401,604.799 L 334.801,587.999 Z "/>
				<path id="dp_path069" fill="black" d="M 328.08,587.999 L 328.08,547.199 L 324.72,547.199 L 324.72,587.999 Z "/>
			</g>
		</g>
		<g id="dp_group070">
			<g id="dp_group071">
				<path id="dp_path072" fill="black" fill-rule="evenodd" d="M 356.209,594.717 L 354.193,594.717 L 350.161,594.717 L 355.201,604.797 L 360.241,594.717 Z "/>
				<path id="dp_path073" fill="black" d="M 356.208,594.717 L 356.208,527.999 L 354.192,527.999 L 354.192,594.717 Z "/>
			</g>
		</g>
		<g id="dp_group074">
			<path id="dp_path075" fill="white" fill-rule="evenodd" stroke="black" stroke-width="1.33333" d="M 393.601,604.8 L 460.8,604.8 L 460.8,633.6 L 393.601,633.6 Z "/>
			<path id="dp_path076" fill="white" fill-rule="evenodd" stroke="black" stroke-width="1.33333" d="M 408,614.4 C 410.651,614.4 412.8,616.549 412.8,619.2 C 412.8,621.851 410.651,624 408,624 C 405.349,624 403.2,621.851 403.2,619.2 C 403.2,616.549 405.349,614.4 408,614.4 Z "/>
			<path id="dp_path077" fill="white" fill-rule="evenodd" stroke="black" stroke-width="1.33333" d="M 427.2,614.4 C 429.851,614.4 432,616.549 432,619.2 C 432,621.851 429.851,624 427.2,624 C 424.549,624 422.4,621.851 422.4,619.2 C 422.4,616.549 424.549,614.4 427.2,614.4 Z "/>
			<path id="dp_path078" fill="white" fill-rule="evenodd" stroke="black" stroke-width="1.33333" d="M 446.4,614.4 C 449.051,614.4 451.2,616.549 451.2,619.2 C 451.2,621.851 449.051,624 446.4,624 C 443.749,624 441.6,621.851 441.6,619.2 C 441.6,616.549 443.749,614.4 446.4,614.4 Z "/>
		</g>
		<g id="dp_group079">
			<g id="dp_group080">
				<path id="dp_path081" fill="black" fill-rule="evenodd" d="M 414.481,588 L 411.121,588 L 404.401,588 L 412.801,604.8 L 421.201,588 Z "/>
				<path id="dp_path082" fill="black" d="M 414.48,588 L 414.48,547.199 L 411.12,547.199 L 411.12,588 Z "/>
			</g>
		</g>
		<g id="dp_group083">
			<g id="dp_group084">
				<path id="dp_path085" fill="black" fill-rule="evenodd" d="M 442.609,594.717 L 440.593,594.717 L 436.561,594.717 L 441.601,604.797 L 446.641,594.717 Z "/>
				<path id="dp_path086" fill="black" d="M 442.608,594.717 L 442.608,527.999 L 440.592,527.999 L 440.592,594.717 Z "/>
			</g>
		</g>
		<g id="dp_group087">
			<text id="dp_text001" transform="matrix(1,0,0,1,512.769,534.5)" xml:space="preserve" fill="black" stroke="none" stroke-width="0.266667" font-family="Comic Sans MS" font-size="13" font-weight="700" x="17.84" y="0">RS485</text>
			<text id="dp_text002" transform="matrix(1,0,0,1,512.769,534.5)" xml:space="preserve" fill="black" stroke="none" stroke-width="0.266667" font-family="Comic Sans MS" font-size="13" font-weight="700" x="60.0427" y="0"> </text>
			<text id="dp_text003" transform="matrix(1,0,0,1,512.769,534.5)" xml:space="preserve" fill="black" stroke="none" stroke-width="0.266667" font-family="Comic Sans MS" font-size="13" font-weight="700" x="-9.732" y="18.56">TRANSCEIVER </text>
			<g id="dp_group091">
				<g id="dp_group092">
					<path id="dp_path093" fill="black" d="M 604.127,509.472 L 604.127,565.729 L 499.872,565.729 L 499.872,509.472 L 604.127,509.472 L 605.471,508.128 L 498.528,508.128 L 498.528,567.073 L 605.471,567.073 L 605.471,508.128 Z "/>
				</g>
			</g>
		</g>
		<g id="dp_group094">
			<text id="dp_text004" transform="matrix(1,0,0,1,671.459,541.924)" xml:space="preserve" fill="black" stroke="none" stroke-width="0.266667" font-family="Comic Sans MS" font-size="13" font-weight="700" x="-38.352" y="0">RS232 TRANSCEIVERS </text>
			<g id="dp_group096">
				<g id="dp_group097">
					<path id="dp_path098" fill="black" d="M 796.124,509.472 L 796.124,565.728 L 624.672,565.728 L 624.672,509.472 L 796.124,509.472 L 797.468,508.128 L 623.328,508.128 L 623.328,567.072 L 797.468,567.072 L 797.468,508.128 Z "/>
				</g>
			</g>
		</g>
		<path id="dp_path099" fill="none" fill-rule="evenodd" stroke="black" stroke-width="3.36" d="M 412.8,547.2 L 105.6,547.2"/>
		<text id="dp_text005" transform="matrix(1,0,0,1,511.821,657.749)" xml:space="preserve" fill="black" stroke="none" stroke-width="0.266667" font-family="Comic Sans MS" font-size="16" font-weight="700" x="22.5787" y="0">AVR </text>
		<text id="dp_text006" transform="matrix(1,0,0,1,511.821,657.749)" xml:space="preserve" fill="black" stroke="none" stroke-width="0.266667" font-family="Comic Sans MS" font-size="16" font-weight="700" x="13.6187" y="22.272">RS485 </text>
		<text id="dp_text007" transform="matrix(1,0,0,1,619.896,657.749)" xml:space="preserve" fill="black" stroke="none" stroke-width="0.266667" font-family="Comic Sans MS" font-size="16" font-weight="700" x="22.5787" y="0">AVR </text>
		<text id="dp_text008" transform="matrix(1,0,0,1,619.896,657.749)" xml:space="preserve" fill="black" stroke="none" stroke-width="0.266667" font-family="Comic Sans MS" font-size="16" font-weight="700" x="13.6187" y="22.272">RS232 </text>
		<text id="dp_text009" transform="matrix(1,0,0,1,725.496,657.749)" xml:space="preserve" fill="black" stroke="none" stroke-width="0.266667" font-family="Comic Sans MS" font-size="16" font-weight="700" x="-0.226667" y="0">CONSOLE </text>
		<text id="dp_text010" transform="matrix(1,0,0,1,725.496,657.749)" xml:space="preserve" fill="black" stroke="none" stroke-width="0.266667" font-family="Comic Sans MS" font-size="16" font-weight="700" x="13.6187" y="22.272">RS232</text>
		<text id="dp_text011" transform="matrix(1,0,0,1,725.496,657.749)" xml:space="preserve" fill="black" stroke="none" stroke-width="0.266667" font-family="Comic Sans MS" font-size="16" font-weight="700" x="64.264" y="22.272"> </text>
		<path id="dp_path107" fill="none" fill-rule="evenodd" stroke="black" stroke-width="2.016" d="M 259.2,316.8 L 508.799,316.8 L 508.799,470.4 L 259.2,470.4 Z "/>
		<text id="dp_text012" transform="matrix(1,0,0,1,345.059,389.724)" xml:space="preserve" fill="black" stroke="none" stroke-width="0.266667" font-family="Comic Sans MS" font-size="13" font-weight="700" x="-73.8893" y="0">EXPANSION </text>
		<text id="dp_text013" transform="matrix(1,0,0,1,345.059,389.724)" xml:space="preserve" fill="black" stroke="none" stroke-width="0.266667" font-family="Comic Sans MS" font-size="13" font-weight="700" x="15.5667" y="0">MICROCONTROLLER</text>
		<text id="dp_text014" transform="matrix(1,0,0,1,345.059,389.724)" xml:space="preserve" fill="black" stroke="none" stroke-width="0.266667" font-family="Comic Sans MS" font-size="13" font-weight="400" x="151.773" y="0"> </text>
		<g id="dp_group111">
			<path id="dp_path112" fill="white" fill-rule="evenodd" stroke="black" stroke-width="1.344" d="M 163.203,374.401 L 201.6,374.401 L 201.6,470.4 L 163.203,470.4 Z "/>
			<g id="dp_group113">
				<path id="dp_path114" fill="white" fill-rule="evenodd" stroke="black" stroke-width="1.33333" d="M 172.8,379.201 C 175.451,379.201 177.6,381.351 177.6,384.001 C 177.6,386.652 175.451,388.801 172.8,388.801 C 170.149,388.801 168,386.652 168,384.001 C 168,381.351 170.149,379.201 172.8,379.201 Z "/>
				<path id="dp_path115" fill="white" fill-rule="evenodd" stroke="black" stroke-width="1.33333" d="M 192,379.201 C 194.651,379.201 196.8,381.351 196.8,384.001 C 196.8,386.652 194.651,388.801 192,388.801 C 189.349,388.801 187.2,386.652 187.2,384.001 C 187.2,381.351 189.349,379.201 192,379.201 Z "/>
			</g>
			<g id="dp_group116">
				<path id="dp_path117" fill="white" fill-rule="evenodd" stroke="black" stroke-width="1.33333" d="M 172.801,398.401 C 175.452,398.401 177.601,400.551 177.601,403.201 C 177.601,405.852 175.452,408.001 172.801,408.001 C 170.151,408.001 168.001,405.852 168.001,403.201 C 168.001,400.551 170.151,398.401 172.801,398.401 Z "/>
				<path id="dp_path118" fill="white" fill-rule="evenodd" stroke="black" stroke-width="1.33333" d="M 192.001,398.401 C 194.652,398.401 196.801,400.551 196.801,403.201 C 196.801,405.852 194.652,408.001 192.001,408.001 C 189.351,408.001 187.201,405.852 187.201,403.201 C 187.201,400.551 189.351,398.401 192.001,398.401 Z "/>
			</g>
			<g id="dp_group119">
				<path id="dp_path120" fill="white" fill-rule="evenodd" stroke="black" stroke-width="1.33333" d="M 172.801,417.601 C 175.452,417.601 177.601,419.751 177.601,422.401 C 177.601,425.052 175.452,427.201 172.801,427.201 C 170.151,427.201 168.001,425.052 168.001,422.401 C 168.001,419.751 170.151,417.601 172.801,417.601 Z "/>
				<path id="dp_path121" fill="white" fill-rule="evenodd" stroke="black" stroke-width="1.33333" d="M 192.001,417.601 C 194.652,417.601 196.801,419.751 196.801,422.401 C 196.801,425.052 194.652,427.201 192.001,427.201 C 189.351,427.201 187.201,425.052 187.201,422.401 C 187.201,419.751 189.351,417.601 192.001,417.601 Z "/>
			</g>
			<g id="dp_group122">
				<path id="dp_path123" fill="white" fill-rule="evenodd" stroke="black" stroke-width="1.33333" d="M 172.801,436.801 C 175.452,436.801 177.601,438.951 177.601,441.601 C 177.601,444.252 175.452,446.401 172.801,446.401 C 170.151,446.401 168.001,444.252 168.001,441.601 C 168.001,438.951 170.151,436.801 172.801,436.801 Z "/>
				<path id="dp_path124" fill="white" fill-rule="evenodd" stroke="black" stroke-width="1.33333" d="M 192.001,436.801 C 194.652,436.801 196.801,438.951 196.801,441.601 C 196.801,444.252 194.652,446.401 192.001,446.401 C 189.351,446.401 187.201,444.252 187.201,441.601 C 187.201,438.951 189.351,436.801 192.001,436.801 Z "/>
			</g>
			<g id="dp_group125">
				<path id="dp_path126" fill="white" fill-rule="evenodd" stroke="black" stroke-width="1.33333" d="M 172.801,456.001 C 175.452,456.001 177.601,458.151 177.601,460.801 C 177.601,463.452 175.452,465.601 172.801,465.601 C 170.151,465.601 168.001,463.452 168.001,460.801 C 168.001,458.151 170.151,456.001 172.801,456.001 Z "/>
				<path id="dp_path127" fill="white" fill-rule="evenodd" stroke="black" stroke-width="1.33333" d="M 192.001,456.001 C 194.652,456.001 196.801,458.151 196.801,460.801 C 196.801,463.452 194.652,465.601 192.001,465.601 C 189.351,465.601 187.201,463.452 187.201,460.801 C 187.201,458.151 189.351,456.001 192.001,456.001 Z "/>
			</g>
		</g>
		<g id="dp_group128">
			<g id="dp_group129">
				<path id="dp_path130" fill="black" fill-rule="evenodd" d="M 218.4,424.081 L 218.4,420.721 L 218.4,414.001 L 201.6,422.401 L 218.4,430.801 Z "/>
				<path id="dp_path131" fill="black" fill-rule="evenodd" d="M 242.4,420.719 L 242.4,424.079 L 242.4,430.799 L 259.2,422.399 L 242.4,413.999 Z "/>
				<path id="dp_path132" fill="black" d="M 218.4,424.08 L 242.4,424.08 L 242.4,420.72 L 218.4,420.72 Z "/>
			</g>
		</g>
		<text id="dp_text015" transform="matrix(1,0,0,1,258.659,667.349)" xml:space="preserve" fill="black" stroke="none" stroke-width="0.266667" font-family="Comic Sans MS" font-size="16" font-weight="700" x="-85.368" y="0">4 X PWM RC SERVO OUTPUTS </text>
		<text id="dp_text016" transform="matrix(1,0,0,1,141.859,344.021)" xml:space="preserve" fill="black" stroke="none" stroke-width="0.266667" font-family="Comic Sans MS" font-size="16" font-weight="700" x="-11.256" y="0">EXPANSION </text>
		<text id="dp_text017" transform="matrix(1,0,0,1,141.859,344.021)" xml:space="preserve" fill="black" stroke="none" stroke-width="0.266667" font-family="Comic Sans MS" font-size="16" font-weight="700" x="6.06667" y="22.272">HEADER </text>
		<g id="dp_group136">
			<g id="dp_group137">
				<path id="dp_path138" fill="black" fill-rule="evenodd" d="M 553.115,498.711 L 551.1,498.729 L 547.068,498.765 L 552.197,508.8 L 557.147,498.675 Z "/>
				<path id="dp_path139" fill="black" fill-rule="evenodd" d="M 518.88,452.209 L 518.88,450.193 L 518.88,446.161 L 508.8,451.201 L 518.88,456.241 Z "/>
				<path id="dp_path140" fill="black" d="M 553.115,498.711 L 552.685,450.192 L 518.88,450.192 L 518.88,452.208 L 550.688,452.208 L 551.099,498.729 Z "/>
			</g>
		</g>
		<g id="dp_group141">
			<g id="dp_group142">
				<path id="dp_path143" fill="black" fill-rule="evenodd" d="M 658.605,498.712 L 656.589,498.712 L 652.557,498.712 L 657.597,508.792 L 662.637,498.712 Z "/>
				<path id="dp_path144" fill="black" fill-rule="evenodd" d="M 518.879,413.809 L 518.879,411.793 L 518.879,407.761 L 508.799,412.801 L 518.879,417.841 Z "/>
				<path id="dp_path145" fill="black" d="M 658.604,498.712 L 658.604,411.792 L 518.879,411.792 L 518.879,413.808 L 656.588,413.808 L 656.588,498.712 Z "/>
			</g>
		</g>
		<g id="dp_group146">
			<g id="dp_group147">
				<path id="dp_path148" fill="black" fill-rule="evenodd" d="M 764.209,498.712 L 762.193,498.712 L 758.161,498.712 L 763.201,508.792 L 768.241,498.712 Z "/>
				<path id="dp_path149" fill="black" fill-rule="evenodd" d="M 873.12,411.791 L 873.12,413.807 L 873.12,417.839 L 883.2,412.799 L 873.12,407.759 Z "/>
				<path id="dp_path150" fill="black" d="M 764.208,498.712 L 764.208,413.807 L 873.12,413.808 L 873.12,411.792 L 762.192,411.793 L 762.192,498.712 Z "/>
			</g>
		</g>
		<g id="dp_group151">
			<g id="dp_group152">
				<path id="dp_path153" fill="black" fill-rule="evenodd" d="M 517.74,375.411 L 517.74,373.395 L 517.74,369.363 L 507.66,374.403 L 517.74,379.443 Z "/>
				<path id="dp_path154" fill="black" fill-rule="evenodd" d="M 873.119,373.392 L 873.119,375.408 L 873.119,379.44 L 883.199,374.4 L 873.119,369.36 Z "/>
				<path id="dp_path155" fill="black" d="M 517.74,375.409 L 873.119,375.409 L 873.119,373.393 L 517.74,373.393 Z "/>
			</g>
		</g>
		<g id="dp_group156">
			<g id="dp_group157">
				<g id="dp_group158">
					<path id="dp_path159" fill="black" fill-rule="evenodd" d="M 640.419,353.855 L 640.419,356.543 L 640.419,361.919 L 653.859,355.199 L 640.419,348.479 Z "/>
					<path id="dp_path160" fill="black" d="M 632.459,356.544 L 640.419,356.544 L 640.419,353.856 L 632.459,353.856 Z "/>
				</g>
			</g>
			<g id="dp_group161">
				<g id="dp_group162">
					<path id="dp_path163" fill="black" fill-rule="evenodd" d="M 646.429,340.277 L 647.38,341.228 L 649.281,343.129 L 651.657,336.001 L 644.529,338.377 Z "/>
					<path id="dp_path164" fill="black" d="M 642.533,346.075 L 647.38,341.228 L 646.431,340.279 L 641.584,345.125 Z "/>
				</g>
			</g>
			<g id="dp_group165">
				<g id="dp_group166">
					<path id="dp_path167" fill="black" fill-rule="evenodd" d="M 653.719,340.276 L 654.669,341.227 L 656.571,343.128 L 658.947,336 L 651.819,338.376 Z "/>
					<path id="dp_path168" fill="black" d="M 649.823,346.073 L 654.669,341.227 L 653.72,340.277 L 648.873,345.124 Z "/>
				</g>
			</g>
			<g id="dp_group169">
				<g id="dp_group170">
					<path id="dp_path171" fill="black" d="M 650.315,348.749 L 650.315,361.649 L 653.003,361.649 L 653.003,348.749 Z "/>
				</g>
			</g>
			<g id="dp_group172">
				<g id="dp_group173">
					<path id="dp_path174" fill="black" d="M 661.257,353.856 L 651.659,353.856 L 651.659,356.544 L 661.257,356.544 Z "/>
				</g>
			</g>
		</g>
		<g id="dp_group175">
			<g id="dp_group176">
				<path id="dp_path177" fill="black" fill-rule="evenodd" d="M 668.843,354.191 L 668.843,356.207 L 668.843,360.239 L 670.859,360.239 L 670.859,350.159 L 668.843,350.159 Z "/>
				<path id="dp_path178" fill="black" d="M 661.259,356.208 L 668.843,356.208 L 668.843,354.192 L 661.259,354.192 Z "/>
			</g>
		</g>
		<path id="dp_path179" fill="none" fill-rule="evenodd" stroke="black" stroke-width="2.016" d="M 632.459,355.2 L 613.259,355.2 L 613.259,374.4"/>
		<g id="dp_group180">
			<text id="dp_text018" transform="matrix(1,0,0,1,282.369,246.499)" xml:space="preserve" fill="black" stroke="none" stroke-width="0.266667" font-family="Comic Sans MS" font-size="13" font-weight="700" x="6.108" y="0">+3V BUCK </text>
			<text id="dp_text019" transform="matrix(1,0,0,1,282.369,246.499)" xml:space="preserve" fill="black" stroke="none" stroke-width="0.266667" font-family="Comic Sans MS" font-size="13" font-weight="700" x="-1.696" y="18.56">REGULATOR </text>
			<g id="dp_group183">
				<g id="dp_group184">
					<path id="dp_path185" fill="black" d="M 364.125,221.471 L 364.125,277.728 L 279.072,277.728 L 279.072,221.471 L 364.125,221.471 L 365.469,220.127 L 277.728,220.127 L 277.728,279.072 L 365.469,279.072 L 365.469,220.127 Z "/>
				</g>
			</g>
		</g>
		<g id="dp_group186">
			<text id="dp_text020" transform="matrix(1,0,0,1,407.169,246.499)" xml:space="preserve" fill="black" stroke="none" stroke-width="0.266667" font-family="Comic Sans MS" font-size="13" font-weight="700" x="-0.436" y="0">REAL-TIME </text>
			<text id="dp_text021" transform="matrix(1,0,0,1,407.169,246.499)" xml:space="preserve" fill="black" stroke="none" stroke-width="0.266667" font-family="Comic Sans MS" font-size="13" font-weight="700" x="17.628" y="18.56">CLOCK </text>
			<g id="dp_group189">
				<g id="dp_group190">
					<path id="dp_path191" fill="black" d="M 488.927,221.471 L 488.927,277.728 L 403.872,277.728 L 403.872,221.471 L 488.927,221.471 L 490.271,220.127 L 402.528,220.127 L 402.528,279.072 L 490.271,279.072 L 490.271,220.127 Z "/>
				</g>
			</g>
		</g>
		<g id="dp_group192">
			<text id="dp_text022" transform="matrix(1,0,0,1,138.371,179.299)" xml:space="preserve" fill="black" stroke="none" stroke-width="0.266667" font-family="Comic Sans MS" font-size="13" font-weight="700" x="6.10533" y="0">+5V BUCK </text>
			<text id="dp_text023" transform="matrix(1,0,0,1,138.371,179.299)" xml:space="preserve" fill="black" stroke="none" stroke-width="0.266667" font-family="Comic Sans MS" font-size="13" font-weight="700" x="-1.69733" y="18.56">REGULATOR </text>
			<g id="dp_group195">
				<g id="dp_group196">
					<path id="dp_path197" fill="black" d="M 220.128,154.271 L 220.128,210.528 L 135.073,210.528 L 135.073,154.271 L 220.128,154.271 L 221.472,152.927 L 133.729,152.927 L 133.729,211.872 L 221.472,211.872 L 221.472,152.927 Z "/>
				</g>
			</g>
		</g>
		<g id="dp_group198">
			<g id="dp_group199">
				<path id="dp_path200" fill="black" fill-rule="evenodd" d="M 866.4,180.72 L 866.4,184.08 L 866.4,190.8 L 883.2,182.4 L 866.4,174 Z "/>
				<path id="dp_path201" fill="black" d="M 585.487,184.081 L 866.4,184.081 L 866.4,180.721 L 585.487,180.721 Z "/>
			</g>
		</g>
		<g id="dp_group202">
			<g id="dp_group203">
				<path id="dp_path204" fill="black" fill-rule="evenodd" d="M 318.48,204 L 315.12,204 L 308.4,204 L 316.8,220.8 L 325.2,204 Z "/>
				<path id="dp_path205" fill="black" d="M 315.119,182.4 L 315.119,204 L 318.479,204 L 318.479,182.4 Z "/>
			</g>
		</g>
		<path id="dp_path206" fill="none" fill-rule="evenodd" stroke="black" stroke-width="3.36" d="M 105.6,547.2 L 105.6,508.8"/>
		<g id="dp_group207">
			<g id="dp_group208">
				<path id="dp_path209" fill="black" fill-rule="evenodd" d="M 389.759,248.255 L 389.759,250.943 L 389.759,256.319 L 403.199,249.599 L 389.759,242.879 Z "/>
				<path id="dp_path210" fill="black" d="M 364.799,250.944 L 389.759,250.944 L 389.759,248.256 L 364.799,248.256 Z "/>
			</g>
		</g>
		<g id="dp_group211">
			<g id="dp_group212">
				<path id="dp_path213" fill="black" fill-rule="evenodd" d="M 318.145,303.359 L 315.457,303.359 L 310.081,303.359 L 316.801,316.799 L 323.521,303.359 Z "/>
				<path id="dp_path214" fill="black" d="M 315.456,278.399 L 315.456,303.359 L 318.144,303.359 L 318.144,278.399 Z "/>
			</g>
		</g>
		<g id="dp_group215">
			<g id="dp_group216">
				<path id="dp_path217" fill="black" fill-rule="evenodd" d="M 499.68,250.608 L 499.68,248.592 L 499.68,244.56 L 489.6,249.6 L 499.68,254.64 Z "/>
				<path id="dp_path218" fill="black" fill-rule="evenodd" d="M 873.117,248.589 L 873.117,250.605 L 873.117,254.637 L 883.197,249.597 L 873.117,244.557 Z "/>
				<path id="dp_path219" fill="black" d="M 499.68,250.607 L 873.117,250.607 L 873.117,248.591 L 499.68,248.591 Z "/>
			</g>
		</g>
		<path id="dp_path220" fill="none" fill-rule="evenodd" stroke="black" stroke-width="3.36" d="M 537.488,182.401 L 220.688,182.401"/>
		<g id="dp_group221">
			<path id="dp_path222" fill="none" fill-rule="evenodd" stroke="black" stroke-width="1.344" d="M 547.088,177.601 C 549.739,177.601 551.888,179.751 551.888,182.401 C 551.888,185.052 549.739,187.201 547.088,187.201 C 544.437,187.201 542.288,185.052 542.288,182.401 C 542.288,179.751 544.437,177.601 547.088,177.601 Z "/>
			<path id="dp_path223" fill="none" fill-rule="evenodd" stroke="black" stroke-width="1.344" d="M 575.888,177.601 C 578.539,177.601 580.688,179.751 580.688,182.401 C 580.688,185.052 578.539,187.201 575.888,187.201 C 573.237,187.201 571.088,185.052 571.088,182.401 C 571.088,179.751 573.237,177.601 575.888,177.601 Z "/>
			<path id="dp_path224" fill="none" fill-rule="evenodd" stroke="black" stroke-width="1.344" d="M 551.888,182.401 C 561.513,168.024 561.472,196.811 571.088,182.401"/>
			<path id="dp_path225" fill="none" fill-rule="evenodd" stroke="black" stroke-width="1.344" d="M 585.488,182.401 L 580.688,182.401"/>
			<path id="dp_path226" fill="none" fill-rule="evenodd" stroke="black" stroke-width="1.344" d="M 537.488,182.401 L 542.288,182.401"/>
		</g>
		<g id="dp_group227">
			<path id="dp_path228" fill="none" fill-rule="evenodd" stroke="black" stroke-width="1.344" d="M 110.395,470.397 C 110.396,473.048 108.247,475.197 105.596,475.197 C 102.945,475.199 100.796,473.051 100.795,470.4 C 100.795,467.749 102.943,465.601 105.593,465.6 C 108.244,465.6 110.395,467.747 110.395,470.397 Z "/>
			<path id="dp_path229" fill="none" fill-rule="evenodd" stroke="black" stroke-width="1.344" d="M 110.405,499.196 C 110.405,501.847 108.257,503.997 105.607,503.997 C 102.956,503.999 100.805,501.849 100.805,499.199 C 100.804,496.548 102.953,494.399 105.604,494.397 C 108.255,494.397 110.404,496.545 110.405,499.196 Z "/>
			<path id="dp_path230" fill="none" fill-rule="evenodd" stroke="black" stroke-width="1.344" d="M 105.596,475.199 C 119.977,484.819 91.1907,484.788 105.604,494.399"/>
			<path id="dp_path231" fill="none" fill-rule="evenodd" stroke="black" stroke-width="1.344" d="M 105.608,508.797 L 105.607,503.997"/>
			<path id="dp_path232" fill="none" fill-rule="evenodd" stroke="black" stroke-width="1.344" d="M 105.592,460.8 L 105.593,465.6"/>
		</g>
		<path id="dp_path233" fill="none" fill-rule="evenodd" stroke="black" stroke-width="3.36" d="M 249.599,182.4 L 249.599,239.999 L 105.6,239.999"/>
		<path id="dp_path234" fill="none" fill-rule="evenodd" stroke="black" stroke-width="3.36" d="M 105.6,240 L 105.6,460.8"/>
		<g id="dp_group235">
			<g id="dp_group236">
				<g id="dp_group237">
					<path id="dp_path238" fill="black" fill-rule="evenodd" d="M 641.448,200.255 L 641.448,202.943 L 641.448,208.319 L 654.888,201.599 L 641.448,194.879 Z "/>
					<path id="dp_path239" fill="black" d="M 633.488,202.944 L 641.448,202.944 L 641.448,200.256 L 633.488,200.256 Z "/>
				</g>
			</g>
			<g id="dp_group240">
				<g id="dp_group241">
					<path id="dp_path242" fill="black" fill-rule="evenodd" d="M 648.411,215.571 L 647.46,216.521 L 645.559,218.423 L 652.687,220.799 L 650.311,213.671 Z "/>
					<path id="dp_path243" fill="black" d="M 642.613,211.675 L 647.46,216.521 L 648.409,215.572 L 643.563,210.725 Z "/>
				</g>
			</g>
			<g id="dp_group244">
				<g id="dp_group245">
					<path id="dp_path246" fill="black" fill-rule="evenodd" d="M 655.7,215.572 L 654.749,216.523 L 652.848,218.424 L 659.976,220.8 L 657.6,213.672 Z "/>
					<path id="dp_path247" fill="black" d="M 649.903,211.676 L 654.749,216.523 L 655.699,215.573 L 650.852,210.727 Z "/>
				</g>
			</g>
			<g id="dp_group248">
				<g id="dp_group249">
					<path id="dp_path250" fill="black" d="M 654.032,208.051 L 654.032,195.151 L 651.344,195.151 L 651.344,208.051 Z "/>
				</g>
			</g>
			<g id="dp_group251">
				<g id="dp_group252">
					<path id="dp_path253" fill="black" d="M 662.287,200.256 L 652.688,200.256 L 652.688,202.944 L 662.287,202.944 Z "/>
				</g>
			</g>
		</g>
		<g id="dp_group254">
			<g id="dp_group255">
				<path id="dp_path256" fill="black" fill-rule="evenodd" d="M 669.872,200.591 L 669.872,202.607 L 669.872,206.639 L 671.888,206.639 L 671.888,196.559 L 669.872,196.559 Z "/>
				<path id="dp_path257" fill="black" d="M 662.288,202.608 L 669.872,202.608 L 669.872,200.592 L 662.288,200.592 Z "/>
			</g>
		</g>
		<path id="dp_path258" fill="none" fill-rule="evenodd" stroke="black" stroke-width="2.016" d="M 633.488,201.6 L 614.288,201.6 L 614.288,182.4"/>
		<g id="dp_group259">
			<g id="dp_group260">
				<path id="dp_path261" fill="black" fill-rule="evenodd" d="M 518.88,337.009 L 518.88,334.993 L 518.88,330.961 L 508.8,336.001 L 518.88,341.041 Z "/>
				<path id="dp_path262" fill="black" fill-rule="evenodd" d="M 550.991,259.68 L 553.007,259.68 L 557.039,259.68 L 551.999,249.6 L 546.959,259.68 Z "/>
				<path id="dp_path263" fill="black" d="M 518.88,337.008 L 553.005,337.007 L 553.008,259.68 L 550.992,259.68 L 550.992,334.993 L 518.88,334.992 Z "/>
			</g>
		</g>
		<g id="dp_group264">
			<g id="dp_group265">
				<path id="dp_path266" fill="black" fill-rule="evenodd" d="M 179.281,136.8 L 175.921,136.8 L 169.201,136.8 L 177.601,153.6 L 186.001,136.8 Z "/>
				<path id="dp_path267" fill="black" d="M 175.92,124.8 L 175.92,136.8 L 179.28,136.8 L 179.28,124.8 Z "/>
			</g>
		</g>
		<path id="dp_path268" fill="none" fill-rule="evenodd" stroke="black" stroke-width="2.016" d="M 441.599,527.999 L 441.599,470.399"/>
		<text id="dp_text024" transform="matrix(1,0,0,1,528,448.1)" xml:space="preserve" fill="black" stroke="none" stroke-width="0.266667" font-family="Comic Sans MS" font-size="12" font-weight="700" x="0" y="0">AVR TTL RS485 </text>
		<text id="dp_text025" transform="matrix(1,0,0,1,528,409.7)" xml:space="preserve" fill="black" stroke="none" stroke-width="0.266667" font-family="Comic Sans MS" font-size="12" font-weight="700" x="0" y="0">AVR TTL RS232 </text>
		<text id="dp_text026" transform="matrix(1,0,0,1,730.88,409.312)" xml:space="preserve" fill="black" stroke="none" stroke-width="0.266667" font-family="Comic Sans MS" font-size="12" font-weight="700" x="0" y="0">RPi TTL RS232 </text>
		<text id="dp_text027" transform="matrix(1,0,0,1,670.86,342.501)" xml:space="preserve" fill="black" stroke="none" stroke-width="0.266667" font-family="Comic Sans MS" font-size="12" font-weight="700" x="0" y="0">AVR-PD7 ACTIVITY </text>
		<text id="dp_text028" transform="matrix(1,0,0,1,671.888,222.949)" xml:space="preserve" fill="black" stroke="none" stroke-width="0.266667" font-family="Comic Sans MS" font-size="11" font-weight="400" x="0" y="0">POWER </text>
		<text id="dp_text029" transform="matrix(1,0,0,1,729.6,370.912)" xml:space="preserve" fill="black" stroke="none" stroke-width="0.266667" font-family="Comic Sans MS" font-size="12" font-weight="700" x="0" y="0">RPi GPIO-7 </text>
		<text id="dp_text030" transform="matrix(1,0,0,1,729.6,246.112)" xml:space="preserve" fill="black" stroke="none" stroke-width="0.266667" font-family="Comic Sans MS" font-size="12" font-weight="700" x="0" y="0">RPi I2C </text>
		<text id="dp_text031" transform="matrix(1,0,0,1,723.728,178.912)" xml:space="preserve" fill="black" stroke="none" stroke-width="0.266667" font-family="Comic Sans MS" font-size="12" font-weight="700" x="0" y="0">RPi +5V POWER </text>
		<text id="dp_text032" transform="matrix(1,0,0,1,114.659,84.8213)" xml:space="preserve" fill="black" stroke="none" stroke-width="0.266667" font-family="Comic Sans MS" font-size="16" font-weight="700" x="-20.216" y="0">POWER INPUT </text>
		<text id="dp_text033" transform="matrix(1,0,0,1,371.563,100.175)" xml:space="preserve" fill="black" stroke="none" stroke-width="0.266667" font-family="Comic Sans MS" font-size="19" font-weight="700" x="-124.58" y="0">RASPY JUICE EXPANSION BOARD </text>
		<text id="dp_text034" transform="matrix(1,0,0,1,719.459,72.1493)" xml:space="preserve" fill="black" stroke="none" stroke-width="0.266667" font-family="Comic Sans MS" font-size="16" font-weight="700" x="-79.5867" y="0">RASPBERRY PI GPIO HEADER </text>
		<path id="dp_path280" fill="none" fill-rule="evenodd" stroke="#5b5b5b" stroke-width="3.36" d="M 940.799,662.391 L 883.2,662.391 L 883.2,48 L 940.799,48"/>
		<path id="dp_path281" fill="none" fill-rule="evenodd" stroke="black" stroke-width="2.016" d="M 440.959,527.999 L 182.4,527.999"/>
	</g>
</svg>